<svg id="search_1_" data-name="search (1)" xmlns="http://www.w3.org/2000/svg" width="23.991" height="23.991" viewBox="0 0 23.991 23.991">
  <g id="Group_46" data-name="Group 46" transform="translate(3.607 5.2)">
    <g id="Group_45" data-name="Group 45">
      <path id="Path_371" data-name="Path 371" d="M79.995,111.235a.886.886,0,0,0-1.253,0,6.058,6.058,0,0,0-1.733,4.91.886.886,0,0,0,.881.8c.03,0,.059,0,.089,0a.887.887,0,0,0,.794-.97,4.292,4.292,0,0,1,1.222-3.48A.886.886,0,0,0,79.995,111.235Z" transform="translate(-76.978 -110.975)" fill="#393e46"/>
    </g>
  </g>
  <g id="Group_48" data-name="Group 48">
    <g id="Group_47" data-name="Group 47">
      <path id="Path_372" data-name="Path 372" d="M10.134,0A10.134,10.134,0,1,0,20.268,10.134,10.146,10.146,0,0,0,10.134,0Zm0,18.5A8.361,8.361,0,1,1,18.5,10.134,8.371,8.371,0,0,1,10.134,18.5Z" fill="#393e46"/>
    </g>
  </g>
  <g id="Group_50" data-name="Group 50" transform="translate(15.777 15.777)">
    <g id="Group_49" data-name="Group 49">
      <path id="Path_373" data-name="Path 373" d="M344.663,343.41l-6.441-6.441a.886.886,0,1,0-1.253,1.253l6.441,6.441a.886.886,0,0,0,1.253-1.253Z" transform="translate(-336.708 -336.709)" fill="#393e46"/>
    </g>
  </g>
</svg>
