<svg id="Untitled-1-04" xmlns="http://www.w3.org/2000/svg" width="125.385" height="125.385" viewBox="0 0 125.385 125.385">
  <circle id="Ellipse_11" data-name="Ellipse 11" cx="44.33" cy="44.33" r="44.33" transform="translate(0 62.693) rotate(-45)" fill="#fff"/>
  <path id="Path_190" data-name="Path 190" d="M590.836,493.39c0,3.344-1.513,14.2,1.018,18.9s6.542,11.2,2.4,14.1-25.025,3.949-17.057-15.11S590.836,493.39,590.836,493.39Z" transform="translate(-511.632 -448.187)" fill="#152a38"/>
  <path id="Path_191" data-name="Path 191" d="M273.163,843.806s2.326-8.578,1.672-11.777S263.857,800.767,262.844,798s16.43-1.163,17.084-1.815,4.654,8.362,9.379,7.053,2.835-7.852,2.835-8.143,11.547-2.13,12.492-2.351,4.516,9.909,2.625,21.4-4.943,18.539-4.362,21.01,1.745,8.652,1.745,8.652Z" transform="translate(-223.694 -723.939)" fill="#32e0c4"/>
  <path id="Path_192" data-name="Path 192" d="M791.517,792.852c.216-.666,5.386,5.277,9.894,11.093s14.467,16.212,12.432,20.211-8.07,2.035-11.414-2.4-7.179-7.485-8.1-8.81S790.752,795.2,791.517,792.852Z" transform="translate(-710.574 -723.991)" fill="#32e0c4"/>
  <path id="Path_193" data-name="Path 193" d="M808.948,825.131c-2.618,0-5.773-1.852-7.853-4.609a58.053,58.053,0,0,0-5.985-6.58A21.014,21.014,0,0,1,793,811.707c-.5-.727-1.416-5.434-2.057-9.708-.638-4.251-1.175-9.24-.772-10.484a.177.177,0,0,1,.176-.127c.844,0,6.411,6.676,9.907,11.186.891,1.149,2,2.486,3.177,3.9,4.871,5.861,10.932,13.156,9.266,16.427A3.949,3.949,0,0,1,808.948,825.131Zm-18.582-33.52c-.376,1.251.158,6.158.789,10.356.731,4.875,1.6,9.009,2.021,9.616a20.9,20.9,0,0,0,2.088,2.2,58.05,58.05,0,0,1,6.006,6.6c2.04,2.706,5.128,4.523,7.678,4.523a3.741,3.741,0,0,0,3.55-2.108c.7-1.379-.016-3.708-2.209-7.083a104.745,104.745,0,0,0-7.031-9.106c-1.177-1.42-2.288-2.754-3.181-3.906C795.3,796.542,790.983,791.738,790.366,791.611Z" transform="translate(-709.328 -722.69)" fill="#1ed1af"/>
  <path id="Path_194" data-name="Path 194" d="M832.224,1032.951,819.86,1018.86a9.167,9.167,0,0,0,.752,2.377C820.987,1021.689,830.042,1032.842,832.224,1032.951Z" transform="translate(-736.807 -932.216)" fill="#1ed1af"/>
  <path id="Path_195" data-name="Path 195" d="M62.767,846.711c-1.826-.42-18.329,30.515-17.966,32.333s1.893,4.58,6.689,1.814S67.911,866.442,68.471,865.4C70.344,861.934,65.035,847.231,62.767,846.711Z" transform="translate(-22.886 -773.644)" fill="#32e0c4"/>
  <path id="Path_196" data-name="Path 196" d="M46.708,880.862h0c-2.393,0-3.081-2.15-3.266-3.077-.179-.9,3.283-7.938,6.792-14.516,3.285-6.158,7.909-14.311,10.132-17.022.682-.831.959-.928,1.109-.928a.271.271,0,0,1,.063.007c.973.223,2.2,2.655,2.851,4.084,2.084,4.6,4.26,12.295,2.925,14.77-.558,1.034-12.16,12.7-17.023,15.5A7.5,7.5,0,0,1,46.708,880.862Zm14.767-35.323c-.073,0-.316.079-.94.847-2.209,2.7-6.828,10.837-10.108,16.986-4.064,7.621-6.912,13.665-6.771,14.373.174.872.82,2.9,3.052,2.9h0a7.288,7.288,0,0,0,3.475-1.155c4.842-2.788,16.385-14.384,16.939-15.411.563-1.044.5-3.3-.189-6.363a44.935,44.935,0,0,0-2.742-8.214c-1.058-2.335-2.068-3.816-2.7-3.961Z" transform="translate(-21.634 -772.367)" fill="#1ed1af"/>
  <path id="Path_197" data-name="Path 197" d="M468.8,768.346c0-.514,1.963-.364,1.672-5.817l9.088-.8s.947,4.362,3.635,5.671,2.253,9.523-2.69,9.523S468.8,773.29,468.8,768.346Z" transform="translate(-413.442 -695.371)" fill="#fac1ae"/>
  <path id="Path_198" data-name="Path 198" d="M483.276,767.439c-.024-.013-.047-.027-.072-.039-2.69-1.309-3.635-5.671-3.635-5.671l-9.087.8c.291,5.453-1.672,5.3-1.672,5.816,0,.158.006.316.021.469,2.493,1.949,3.909,2.919,7.213,2.919A9.863,9.863,0,0,0,483.276,767.439Z" transform="translate(-413.451 -695.371)" fill="#edb2a2"/>
  <path id="Path_199" data-name="Path 199" d="M466.494,822.467c.678-.125.46-.388,1.262.581s2.5,5.086,6.034,5.207c2.367.079,6.422-1.352,6.955-3.272.734-2.642-2.023-3.742-1.248-3.844,1.509-.2,7.621,8.283-1.949,10.5C472.746,832.754,463.561,826.362,466.494,822.467Z" transform="translate(-410.796 -750.091)" fill="#fff"/>
  <path id="Path_200" data-name="Path 200" d="M347.082,313.435c1.269,1.844,7.706,11.05,16.358,11.05,3.708,0,7.329-6.448,8.651-10.323,1.886-5.522,1.672-13.814,1.745-18.829.066-4.554-4.871-15.7-16.213-14.613s-15.753,7.125-16.567,11.051S340.175,303.4,347.082,313.435Z" transform="translate(-295.431 -252.238)" fill="#fac1ae"/>
  <path id="Path_201" data-name="Path 201" d="M464.369,573.155c.691.015,4.733-.552,5.054-.918s.275,1.4-.1,1.512-7.913.738-8.505.99S460.663,573.074,464.369,573.155Z" transform="translate(-405.89 -520.781)" fill="#152a38"/>
  <path id="Path_202" data-name="Path 202" d="M641.768,559.075c-.674.158-4.743.428-5.134.135s.016,1.42.4,1.46,7.9-.9,8.528-.77S645.379,558.238,641.768,559.075Z" transform="translate(-567.889 -508.497)" fill="#152a38"/>
  <path id="Path_203" data-name="Path 203" d="M660.087,599.552a6.318,6.318,0,0,1,2.751-2.713c1.43-.486,3.507.585,2.521.532C662.632,597.225,659.706,600.206,660.087,599.552Z" transform="translate(-589.608 -543.371)" fill="#152a38"/>
  <path id="Path_204" data-name="Path 204" d="M492.6,621.8a6.329,6.329,0,0,0-3.55-1.525c-1.509.068-3.052,1.822-2.154,1.413C489.385,620.565,493.2,622.274,492.6,621.8Z" transform="translate(-429.867 -565.078)" fill="#152a38"/>
  <path id="Path_205" data-name="Path 205" d="M608.34,640.7c.291,1.066,1.77,4.1,1.624,4.654s-1.09.363-1.814.484C607.929,645.874,608.34,640.7,608.34,640.7Z" transform="translate(-541.738 -583.889)" fill="#eaac9b"/>
  <path id="Path_206" data-name="Path 206" d="M591.446,744.507c.967-.12,3.024.6,2.288,1.608a3.429,3.429,0,0,1-3.855.833C588.612,746.373,589.1,744.8,591.446,744.507Z" transform="translate(-524.342 -679.495)" fill="#f7637f"/>
  <path id="Path_207" data-name="Path 207" d="M342.339,266.967c2.545,8.143,5.574,8.652,8.143,9.452,0,0-.727-20.14-15.89-22.1-16.119-2.087-20.17,7.705-21.334,15.121s5.38,19.818,3.345,23.286-5.089,7.976-2.181,11.466c0,0-1.164-3.272,1.6-2.509s2.69,4.4,6.616,5.925c0,0,6.994,4.677,6.349-5.483-.678-10.693-9.112-12.868-8.412-24.071C320.574,278.052,339.379,279.905,342.339,266.967Z" transform="translate(-270.042 -227.725)" fill="#0c202b"/>
  <path id="Path_208" data-name="Path 208" d="M342.293,265.554c2.545,8.143,5.5,10.033,8.07,10.833,0,0-.727-20.14-15.89-22.1-16.119-2.085-20.662,7.646-21.334,15.122-1.212,13.49,5.38,19.818,3.345,23.286s-5.089,7.976-2.181,11.466c0,0-1.164-3.854,1.6-3.09s1.979,2.166,5.671,5.2c0,0,7.455,5.967,6.567-4.174s-9.4-13.595-8.7-24.8C319.437,277.294,339.331,278.5,342.293,265.554Z" transform="translate(-269.923 -227.694)" fill="#152a38"/>
  <path id="Path_209" data-name="Path 209" d="M347.834,601.38c-.654.145-3.811.947,0,5.852,0,0-.473-2.908-.473-3.889A5.219,5.219,0,0,1,347.834,601.38Z" transform="translate(-300.316 -547.671)" fill="#fac1ae"/>
  <path id="Path_210" data-name="Path 210" d="M228.668,1052.225c-6.715,1.514-17.739,4.871-19.92,1.309a57.649,57.649,0,0,1-4.217-10.033l-.513.59h0l-11.938,13.734c5.266-4.484,11.66-10.977,12.057-11.747,2.682,7.473,5.241,14.785,5.556,16.33.655,3.2-1.672,11.777-1.672,11.777h.338c.536-1.484,1.158-3.55,1.916-6.325,3.272-11.991,16.43-10.469,20.432-11.209s7.488-.932,6.907,4.085a12.406,12.406,0,0,0,.079,3.756c.151-2.716,3.866-14.055,4.664-21.641C240.325,1053.049,233.078,1051.23,228.668,1052.225Z" transform="translate(-158.552 -954.314)" fill="#1ed1af"/>
  <path id="Path_211" data-name="Path 211" d="M398.751,1140.919a9.115,9.115,0,0,0,1.527.182c.4-.036,8.362-6.108,8.652-6.216a24.931,24.931,0,0,1,4.8,1.42c.219.22-.291,2.072-.473,2.581a1.044,1.044,0,0,1,.418.382c.145.254-.418,1.545-.418,1.545s.309.491-.327,1.291-.854.71-.854.71.509.4.182.673a11.817,11.817,0,0,1-2.472,1.617c-.527.109-2.635-1.291-2.635-1.291a20.285,20.285,0,0,1-2.018,1.3,5.075,5.075,0,0,1-3.835,0,5.672,5.672,0,0,0-2.544-.025Z" transform="translate(-348.918 -1039.082)" fill="#fac1ae"/>
  <path id="Path_212" data-name="Path 212" d="M514.26,1225.89a3.787,3.787,0,0,1,.44.237c.142.086.279.179.414.275a3.921,3.921,0,0,1,.389.316c.062.055.122.113.181.173a.874.874,0,0,1,.151.2,1.569,1.569,0,0,0-.2-.148l-.2-.139c-.137-.092-.271-.188-.4-.284s-.264-.2-.394-.3A4.9,4.9,0,0,1,514.26,1225.89Z" transform="translate(-455.316 -1122.914)" fill="#eaac9b"/>
  <path id="Path_213" data-name="Path 213" d="M536.874,1209.665c-.237-.163-.466-.337-.69-.514s-.446-.36-.665-.544-.435-.372-.648-.565q-.16-.143-.316-.29c-.1-.1-.207-.2-.316-.292a3.651,3.651,0,0,1,.361.237c.116.084.231.17.345.258.227.174.448.356.668.541s.434.373.645.568S536.676,1209.456,536.874,1209.665Z" transform="translate(-473.719 -1105.938)" fill="#eaac9b"/>
  <path id="Path_214" data-name="Path 214" d="M548.925,1186.867c-.254-.148-.5-.306-.743-.468s-.483-.327-.722-.495-.473-.339-.71-.513l-.352-.26a4.358,4.358,0,0,0-.358-.252,2.416,2.416,0,0,1,.394.192q.192.109.377.227c.248.158.489.32.729.488s.473.342.7.521S548.706,1186.671,548.925,1186.867Z" transform="translate(-484.588 -1085.139)" fill="#eaac9b"/>
  <path id="Path_215" data-name="Path 215" d="M552.084,1167.946c-.232-.1-.457-.219-.679-.338s-.441-.244-.66-.37-.432-.258-.644-.394-.422-.276-.631-.414a5.49,5.49,0,0,1,.69.315c.225.116.444.237.663.367s.432.259.643.394S551.883,1167.791,552.084,1167.946Z" transform="translate(-487.748 -1068.145)" fill="#eaac9b"/>
  <path id="Path_216" data-name="Path 216" d="M505.6,1234.183c-.123.092-.245.184-.377.265l.17-.158.172-.153c.115-.1.237-.2.351-.3s.237-.193.36-.286.245-.185.372-.272c-.108.11-.222.213-.337.316" transform="translate(-446.989 -1129.721)" fill="#eaac9b"/>
  <path id="Path_217" data-name="Path 217" d="M36.015,1185.246c-1.768-.226-7.779.436-10.542,8.585-.648,1.915,2.323,5.225,15.559,1.957,7.924-1.957,15.17-3.053,15.17-3.053s-.339-5.67-.291-5.917S38.3,1185.536,36.015,1185.246Z" transform="translate(-5.012 -1085.444)" fill="#32e0c4"/>
  <path id="Path_218" data-name="Path 218" d="M30.332,1196h0c-4.023,0-5.456-1.156-5.95-1.844a1.781,1.781,0,0,1-.286-1.637,13.257,13.257,0,0,1,5.1-7.135,9.254,9.254,0,0,1,4.938-1.559,4.965,4.965,0,0,1,.62.036c.962.122,4.7.382,8.665.656,2.682.185,5.447.377,7.573.541,3.629.281,3.676.345,3.729.415l.03.039-.008.054c-.032.2.158,3.629.293,5.885l.006.1-.1.015c-.073.011-7.333,1.118-15.161,3.051A40.862,40.862,0,0,1,30.332,1196Zm3.8-11.957c-1.158,0-7.075.412-9.833,8.546a1.576,1.576,0,0,0,.256,1.44c.473.655,1.844,1.753,5.772,1.753h0a40.627,40.627,0,0,0,9.4-1.377c7.343-1.815,14.186-2.9,15.081-3.04-.05-.858-.3-5.049-.288-5.751-.675-.158-6.449-.552-11.123-.88-3.965-.275-7.709-.533-8.678-.657a4.849,4.849,0,0,0-.588-.034Z" transform="translate(-3.738 -1084.171)" fill="#1ed1af"/>
  <path id="Path_219" data-name="Path 219" d="M700.535,1036.975c1.032-.491,1.643,5.885-1.289,6.927C698.325,1043.636,699.517,1037.46,700.535,1036.975Z" transform="translate(-625.404 -948.877)" fill="#17bf9f"/>
  <path id="Path_220" data-name="Path 220" d="M598.151,910.868s-2.745-.563-2.853-.672-1.761-8.943-1.942-9.488-4.744-2.072-4.853-1.963-.8,1.945-.8,1.945-.441-.037-.621-.073-.561,1.42-.561,1.42h-.691a14.218,14.218,0,0,0-.127,2.091,1.746,1.746,0,0,0-.382.054,17.315,17.315,0,0,0,.691,3.308c.237.364,2.524.69,2.745.69,0,0,.981,3.2,1.217,3.836a2.81,2.81,0,0,0,2.288,1.217c.888.034,4.891,2.272,4.891,2.272Z" transform="translate(-520.767 -821.572)" fill="#fac1ae"/>
  <path id="Path_221" data-name="Path 221" d="M615.56,923.46c.3.032.6.079.895.128s.592.109.886.17.588.129.879.2a8.155,8.155,0,0,1,.868.261c-.3-.05-.595-.095-.89-.15s-.591-.113-.885-.174-.588-.129-.88-.2S615.848,923.551,615.56,923.46Z" transform="translate(-548.624 -844.342)" fill="#eaac9b"/>
  <path id="Path_222" data-name="Path 222" d="M600.58,940.51c.293.005.584.028.874.057s.58.067.868.11.576.1.861.164q.214.049.425.112a1.8,1.8,0,0,1,.407.166,2.665,2.665,0,0,0-.424-.1c-.143-.026-.286-.047-.43-.07l-.862-.132c-.287-.046-.574-.091-.862-.142S600.866,940.576,600.58,940.51Z" transform="translate(-534.826 -860.047)" fill="#eaac9b"/>
  <path id="Path_223" data-name="Path 223" d="M590.21,966.234c.3-.031.605-.047.908-.057s.606-.01.909-.007.606.016.908.039c.151.01.3.025.454.043a2.3,2.3,0,0,1,.448.091,3.642,3.642,0,0,0-.453-.019h-.453c-.3,0-.6,0-.906-.007s-.6-.012-.906-.024S590.513,966.264,590.21,966.234Z" transform="translate(-525.274 -883.682)" fill="#eaac9b"/>
  <path id="Path_224" data-name="Path 224" d="M610,994.157a4.324,4.324,0,0,1,.6-.02c.2,0,.394.018.593.036a5.916,5.916,0,0,1,.59.084c.1.019.195.041.292.067a1.039,1.039,0,0,1,.279.112,1.766,1.766,0,0,0-.293-.042l-.294-.024c-.2-.015-.394-.034-.589-.052s-.394-.041-.588-.068S610.193,994.193,610,994.157Z" transform="translate(-543.503 -909.441)" fill="#eaac9b"/>
  <path id="Path_225" data-name="Path 225" d="M623.48,996.32c.1.283.177.572.249.861a8.945,8.945,0,0,1,.18.879c-.1-.283-.178-.571-.25-.861A8.358,8.358,0,0,1,623.48,996.32Z" transform="translate(-555.919 -911.454)" fill="#eaac9b"/>
  <path id="Path_226" data-name="Path 226" d="M718.97,1040.591c3.439.594,12.722,2.761,14.322,8.07s-1.454,6.325-6.688,5.816-23.047-9.309-23.918-9.815c-.473-.277.94-.218,1.454-2.8a6.175,6.175,0,0,0-.073-3.962C705.084,1037.61,714.861,1039.881,718.97,1040.591Z" transform="translate(-628.787 -949.731)" fill="#32e0c4"/>
  <path id="Path_227" data-name="Path 227" d="M727.478,1053.418c-.65,0-1.36-.039-2.171-.118-5.311-.516-23.228-9.4-23.963-9.829a.255.255,0,0,1-.15-.187c-.008-.11.079-.183.221-.293a3.653,3.653,0,0,0,1.331-2.434v-.009a6.04,6.04,0,0,0-.068-3.891l-.047-.113.117-.033a1.134,1.134,0,0,1,.3-.03,83.822,83.822,0,0,1,9.026,1.607c2.17.446,4.221.868,5.624,1.11,2.963.511,12.745,2.609,14.41,8.146.631,2.083.572,3.581-.17,4.58S729.736,1053.418,727.478,1053.418Zm-26.052-10.152.027.017c.734.427,18.593,9.287,23.874,9.8.8.079,1.508.116,2.151.116,2.182,0,3.584-.46,4.287-1.405s.743-2.375.137-4.387c-.679-2.255-2.84-4.181-6.41-5.734a36.648,36.648,0,0,0-7.827-2.26c-1.407-.243-3.459-.665-5.631-1.112a86.3,86.3,0,0,0-8.982-1.6h-.121a6.4,6.4,0,0,1,.029,3.888v.009a3.848,3.848,0,0,1-1.408,2.562C701.505,1043.2,701.455,1043.239,701.427,1043.267Z" transform="translate(-627.502 -948.447)" fill="#1ed1af"/>
  <path id="Path_228" data-name="Path 228" d="M695.915,847.4s-.182,3.944,1.281,3.65S695.915,847.4,695.915,847.4Z" transform="translate(-622.634 -774.283)" fill="#e1f2ff"/>
  <path id="Path_229" data-name="Path 229" d="M696.78,821.886s2.059,2.517,3.077,1.459S698.624,821.491,696.78,821.886Z" transform="translate(-623.437 -750.686)" fill="#e1f2ff"/>
  <path id="Path_230" data-name="Path 230" d="M652.4,835.26s-1.835,2.682-.532,3.363S653.3,836.917,652.4,835.26Z" transform="translate(-581.636 -763.1)" fill="#e1f2ff"/>
</svg>
