<svg id="Untitled-1-03" xmlns="http://www.w3.org/2000/svg" xmlns:xlink="http://www.w3.org/1999/xlink" width="125.385" height="125.385" viewBox="0 0 125.385 125.385">
  <defs>
    <linearGradient id="linear-gradient" x1="0.5" y1="1" x2="0.5" gradientUnits="objectBoundingBox">
      <stop offset="0" stop-color="#fac1ae"/>
      <stop offset="1" stop-color="#ff2a59"/>
    </linearGradient>
    <linearGradient id="linear-gradient-2" x1="0.499" y1="1.206" x2="0.499" y2="0.143" xlink:href="#linear-gradient"/>
  </defs>
  <circle id="Ellipse_10" data-name="Ellipse 10" cx="44.33" cy="44.33" r="44.33" transform="translate(0 62.693) rotate(-45)" fill="#fff"/>
  <path id="Path_148" data-name="Path 148" d="M587.511,495.989c0,3.337-1.51,14.168,1.016,18.858s6.527,11.17,2.393,14.071-24.967,3.945-17.016-15.074S587.511,495.989,587.511,495.989Z" transform="translate(-508.602 -450.581)" fill="#152a38"/>
  <path id="Path_149" data-name="Path 149" d="M270.53,845.525s2.321-8.559,1.668-11.754-10.952-31.184-11.967-33.94,16.392-1.16,17.045-1.814,4.642,8.342,9.356,7.036,2.829-7.834,2.829-8.126,11.518-2.13,12.464-2.345,4.508,9.891,2.622,21.351-4.93,18.5-4.352,20.963,1.741,8.631,1.741,8.631Z" transform="translate(-221.287 -725.627)" fill="#32e0c4"/>
  <path id="Path_150" data-name="Path 150" d="M60.664,848.481c-1.822-.418-18.286,30.444-17.923,32.257s1.885,4.57,6.672,1.814S65.8,868.17,66.356,867.136C68.225,863.669,62.929,849,60.664,848.481Z" transform="translate(-20.989 -775.274)" fill="#32e0c4"/>
  <path id="Path_151" data-name="Path 151" d="M44.661,882.559h0a3.406,3.406,0,0,1-3.258-3.068c-.178-.894,3.275-7.919,6.777-14.484,3.277-6.143,7.889-14.279,10.108-16.982.679-.829.957-.925,1.1-.925a.271.271,0,0,1,.063.007c.97.223,2.2,2.648,2.845,4.075,2.079,4.59,4.25,12.266,2.919,14.736-.556,1.032-12.131,12.667-16.982,15.462A7.5,7.5,0,0,1,44.661,882.559Zm14.733-35.241c-.073,0-.316.079-.938.845-2.209,2.692-6.812,10.813-10.084,16.947-4.056,7.6-6.9,13.634-6.755,14.339.174.868.819,2.893,3.044,2.893h0a7.262,7.262,0,0,0,3.466-1.153c4.835-2.778,16.348-14.35,16.905-15.375.562-1.041.495-3.3-.189-6.348a44.809,44.809,0,0,0-2.741-8.193c-1.055-2.329-2.062-3.806-2.695-3.952Z" transform="translate(-19.755 -774.006)" fill="#1ed1af"/>
  <path id="Path_152" data-name="Path 152" d="M465.75,770.3c0-.513,1.959-.363,1.668-5.8l9.067-.8s.943,4.352,3.629,5.658,2.248,9.5-2.682,9.5S465.75,775.233,465.75,770.3Z" transform="translate(-410.632 -697.186)" fill="#fac1ae"/>
  <path id="Path_153" data-name="Path 153" d="M480.184,769.4c-.024-.013-.047-.026-.072-.038-2.682-1.306-3.629-5.658-3.629-5.658l-9.064.8c.29,5.443-1.668,5.29-1.668,5.8,0,.158.007.316.021.469,2.487,1.943,3.9,2.909,7.2,2.909A9.828,9.828,0,0,0,480.184,769.4Z" transform="translate(-410.632 -697.186)" fill="#edb2a2"/>
  <path id="Path_154" data-name="Path 154" d="M463.465,824.288c.688-.129.467-.4,1.278.6s2.533,5.247,6.124,5.371c2.4.084,6.516-1.395,7.057-3.375.744-2.726-2.051-3.86-1.266-3.965,1.531-.2,7.731,8.544-1.978,10.835C469.809,834.9,460.489,828.31,463.465,824.288Z" transform="translate(-407.999 -751.729)" fill="#fff"/>
  <path id="Path_155" data-name="Path 155" d="M226.164,1053.513c-6.7,1.511-17.7,4.86-19.873,1.306a57.613,57.613,0,0,1-4.207-10.009l-.512.589h0l-11.912,13.7c5.254-4.474,11.633-10.951,12.029-11.721,2.676,7.456,5.229,14.752,5.544,16.287.652,3.192-1.669,11.755-1.669,11.755h.337c.535-1.481,1.156-3.54,1.911-6.311,3.264-11.968,16.392-10.445,20.382-11.183s7.471-.929,6.89,4.075a12.4,12.4,0,0,0,.079,3.747c.15-2.709,3.858-14.022,4.654-21.59C237.794,1054.336,230.564,1052.521,226.164,1053.513Z" transform="translate(-156.323 -955.52)" fill="#1ed1af"/>
  <path id="Path_156" data-name="Path 156" d="M395.862,1142.005a9.1,9.1,0,0,0,1.523.182c.4-.036,8.341-6.093,8.631-6.2a24.931,24.931,0,0,1,4.787,1.414c.218.218-.29,2.067-.473,2.575a1.046,1.046,0,0,1,.417.381c.145.253-.417,1.541-.417,1.541s.308.49-.327,1.287-.852.71-.852.71.508.395.181.671a11.681,11.681,0,0,1-2.466,1.614c-.525.109-2.629-1.287-2.629-1.287a20.262,20.262,0,0,1-2.012,1.294,5.057,5.057,0,0,1-3.826,0,5.659,5.659,0,0,0-2.539-.025Z" transform="translate(-346.256 -1040.095)" fill="#fac1ae"/>
  <path id="Path_157" data-name="Path 157" d="M511.11,1226.78a3.825,3.825,0,0,1,.439.237c.142.085.279.179.413.275a4.472,4.472,0,0,1,.387.311c.062.055.122.113.181.174a.843.843,0,0,1,.148.2,1.5,1.5,0,0,0-.2-.147l-.2-.139c-.136-.092-.27-.187-.4-.283s-.264-.2-.394-.3A4.882,4.882,0,0,1,511.11,1226.78Z" transform="translate(-452.414 -1123.734)" fill="#eaac9b"/>
  <path id="Path_158" data-name="Path 158" d="M533.659,1210.59c-.237-.163-.464-.337-.689-.514s-.445-.359-.664-.542-.433-.372-.645-.564c-.107-.095-.211-.192-.316-.289s-.207-.2-.316-.292a3.554,3.554,0,0,1,.36.237c.116.085.231.17.344.257.227.174.447.357.667.54s.433.372.644.566S533.462,1210.381,533.659,1210.59Z" transform="translate(-470.763 -1106.794)" fill="#eaac9b"/>
  <path id="Path_159" data-name="Path 159" d="M545.679,1187.852c-.253-.147-.5-.3-.741-.466s-.482-.326-.721-.494-.473-.338-.71-.511l-.35-.26c-.118-.085-.232-.177-.357-.251a2.428,2.428,0,0,1,.394.192q.191.109.376.226c.248.158.488.316.727.487s.473.342.7.521S545.462,1187.656,545.679,1187.852Z" transform="translate(-481.604 -1086.051)" fill="#eaac9b"/>
  <path id="Path_160" data-name="Path 160" d="M548.83,1168.972c-.231-.1-.455-.218-.677-.337s-.44-.243-.658-.368-.432-.258-.644-.395-.421-.275-.631-.412a5.423,5.423,0,0,1,.689.315c.224.115.443.237.661.365s.432.259.641.395S548.629,1168.818,548.83,1168.972Z" transform="translate(-484.754 -1069.093)" fill="#eaac9b"/>
  <path id="Path_161" data-name="Path 161" d="M502.447,1235.051c-.123.091-.245.184-.377.264l.17-.158.172-.152c.114-.1.232-.2.349-.3s.237-.193.36-.286.244-.185.371-.272c-.108.11-.222.212-.335.316" transform="translate(-444.087 -1130.522)" fill="#eaac9b"/>
  <path id="Path_162" data-name="Path 162" d="M33.99,1186.228c-1.764-.225-7.76.435-10.517,8.565-.648,1.91,2.317,5.212,15.521,1.952,7.906-1.952,15.132-3.046,15.132-3.046s-.338-5.658-.29-5.9S36.262,1186.518,33.99,1186.228Z" transform="translate(-3.17 -1086.349)" fill="#32e0c4"/>
  <path id="Path_163" data-name="Path 163" d="M28.33,1196.956h0c-4.017,0-5.443-1.152-5.936-1.84a1.777,1.777,0,0,1-.285-1.633,13.223,13.223,0,0,1,5.089-7.118,9.231,9.231,0,0,1,4.927-1.556,4.917,4.917,0,0,1,.618.035c.96.123,4.693.381,8.645.655,2.672.185,5.435.376,7.555.54,3.618.28,3.668.345,3.72.414l.03.039-.008.054c-.032.2.158,3.623.292,5.872l.006.1-.1.015c-.073.011-7.315,1.116-15.125,3.044A40.739,40.739,0,0,1,28.33,1196.956Zm3.795-11.929c-1.156,0-7.058.411-9.81,8.526a1.57,1.57,0,0,0,.256,1.436c.469.653,1.84,1.749,5.759,1.75h0a40.547,40.547,0,0,0,9.378-1.375c7.326-1.808,14.153-2.894,15.047-3.032-.051-.855-.3-5.036-.287-5.738-.674-.158-6.435-.552-11.094-.877-3.955-.274-7.691-.533-8.657-.656a4.8,4.8,0,0,0-.591-.034Z" transform="translate(-1.909 -1085.074)" fill="#1ed1af"/>
  <path id="Path_164" data-name="Path 164" d="M341.582,316.346c1.271,1.846,7.711,11.058,16.369,11.058,3.708,0,7.337-6.452,8.657-10.331,1.888-5.529,1.674-13.823,1.747-18.843.065-4.557-4.875-15.714-16.224-14.623s-15.764,7.13-16.576,11.058S334.67,306.306,341.582,316.346Z" transform="translate(-290.364 -254.899)" fill="url(#linear-gradient)"/>
  <path id="Path_165" data-name="Path 165" d="M458.917,576.245c.693.016,4.733-.552,5.057-.918s.276,1.4-.1,1.513-7.917.738-8.511.991S455.21,576.165,458.917,576.245Z" transform="translate(-400.867 -523.627)" fill="#152a38"/>
  <path id="Path_166" data-name="Path 166" d="M636.442,562.151c-.674.158-4.747.428-5.138.136s.016,1.42.4,1.461,7.9-.9,8.533-.772S640.056,561.314,636.442,562.151Z" transform="translate(-562.98 -511.33)" fill="#152a38"/>
  <path id="Path_167" data-name="Path 167" d="M650.439,604.124a6.336,6.336,0,0,1,3.571-1.483c1.509.087,3.032,1.859,2.137,1.44C653.674,602.922,649.841,604.586,650.439,604.124Z" transform="translate(-580.694 -548.828)" fill="#152a38"/>
  <path id="Path_168" data-name="Path 168" d="M488.833,624.54A6.337,6.337,0,0,0,485,624c-1.44.46-2.473,2.555-1.71,1.924C485.4,624.184,489.528,624.839,488.833,624.54Z" transform="translate(-426.555 -568.374)" fill="#152a38"/>
  <path id="Path_169" data-name="Path 169" d="M602.985,643.83c.291,1.067,1.77,4.1,1.625,4.654s-1.091.364-1.819.485C602.572,649.008,602.985,643.83,602.985,643.83Z" transform="translate(-536.803 -586.772)" fill="url(#linear-gradient-2)"/>
  <path id="Path_170" data-name="Path 170" d="M586.528,749.942c-.968.152-2.929,1.074-2.19-.208a2.955,2.955,0,0,1,3.858-1.057C589.464,749.405,588.87,749.576,586.528,749.942Z" transform="translate(-519.715 -683.038)" fill="#f7637f"/>
  <path id="Path_171" data-name="Path 171" d="M336.819,269.854c2.547,8.148,5.577,8.657,8.148,9.457,0,0-.727-20.154-15.9-22.117-16.132-2.088-20.185,7.71-21.348,15.13s5.383,19.832,3.346,23.3-5.092,7.981-2.182,11.473c0,0-1.164-3.274,1.6-2.509s2.692,4.4,6.62,5.929c0,0,7,4.68,6.354-5.487-.679-10.7-9.119-12.877-8.418-24.088C315.039,280.945,333.855,282.8,336.819,269.854Z" transform="translate(-264.939 -230.375)" fill="#0c202b"/>
  <path id="Path_172" data-name="Path 172" d="M336.774,268.431c2.547,8.148,5.5,10.04,8.076,10.84,0,0-.727-20.154-15.9-22.117-16.132-2.086-20.676,7.652-21.348,15.132-1.211,13.5,5.383,19.832,3.346,23.3s-5.092,7.981-2.182,11.473c0,0-1.164-3.855,1.6-3.092s1.98,2.168,5.674,5.2c0,0,7.461,5.971,6.572-4.181s-9.41-13.6-8.709-24.811C313.9,280.18,333.811,281.383,336.774,268.431Z" transform="translate(-264.823 -230.338)" fill="#152a38"/>
  <path id="Path_173" data-name="Path 173" d="M342.309,604.48c-.655.146-3.813.947,0,5.857,0,0-.473-2.91-.473-3.892A5.228,5.228,0,0,1,342.309,604.48Z" transform="translate(-295.226 -550.526)" fill="#fac1ae"/>
  <path id="Path_174" data-name="Path 174" d="M722.825,737.174c1.2.336-2.862,5.989-6.005,4.744C716.257,741.042,721.646,736.844,722.825,737.174Z" transform="translate(-641.858 -672.735)" fill="#17bf9f"/>
  <path id="Path_175" data-name="Path 175" d="M717.53,573.924s-1.842-2.422-1.853-2.589,4.949-8.574,5.19-9.151-2.4-5.085-2.566-5.074-2.049,1.017-2.049,1.017-.334-.346-.454-.5-1.473.759-1.473.759l-.565-.492a15.209,15.209,0,0,0-1.6,1.619,1.864,1.864,0,0,0-.351-.228,18.753,18.753,0,0,0-1.8,3.2c-.064.466,1.573,2.367,1.751,2.524,0,0-1.484,3.319-1.745,4.008a3.064,3.064,0,0,0,1,2.633c.7.667,2.375,5.353,2.375,5.353Z" transform="translate(-635.57 -506.893)" fill="#fac1ae"/>
  <path id="Path_176" data-name="Path 176" d="M789.81,570c.224.237.435.49.641.744s.406.512.6.772.388.526.573.8a8.834,8.834,0,0,1,.521.832c-.207-.253-.419-.5-.621-.759s-.4-.514-.6-.775-.388-.525-.575-.793S789.983,570.282,789.81,570Z" transform="translate(-709.128 -518.766)" fill="#eaac9b"/>
  <path id="Path_177" data-name="Path 177" d="M765.38,573.28c.237.213.458.44.674.671s.426.469.631.71.4.491.587.749q.14.192.268.394a2.021,2.021,0,0,1,.214.427,3.152,3.152,0,0,0-.278-.382c-.1-.123-.2-.243-.3-.364l-.61-.723c-.2-.242-.405-.484-.6-.731S765.567,573.537,765.38,573.28Z" transform="translate(-686.625 -521.788)" fill="#eaac9b"/>
  <path id="Path_178" data-name="Path 178" d="M738,587.54c.27.19.529.394.783.6s.5.424.748.644.484.446.716.681c.116.117.229.237.34.36a2.518,2.518,0,0,1,.3.394,4.375,4.375,0,0,0-.357-.339l-.369-.324q-.371-.324-.737-.654c-.243-.221-.486-.441-.723-.668S738.224,587.78,738,587.54Z" transform="translate(-661.405 -534.923)" fill="#eaac9b"/>
  <path id="Path_179" data-name="Path 179" d="M734.51,624.07a4.671,4.671,0,0,1,.5.41c.158.145.311.3.46.454a6.391,6.391,0,0,1,.422.49c.066.085.13.174.191.264a1.153,1.153,0,0,1,.149.291,1.926,1.926,0,0,0-.21-.243l-.223-.23c-.149-.153-.3-.308-.444-.463s-.292-.316-.432-.473S734.645,624.24,734.51,624.07Z" transform="translate(-658.19 -568.571)" fill="#eaac9b"/>
  <path id="Path_180" data-name="Path 180" d="M733.793,635.29c-.121.3-.264.595-.412.884a9.681,9.681,0,0,1-.481.846c.121-.3.264-.594.412-.883S733.618,635.564,733.793,635.29Z" transform="translate(-656.707 -578.906)" fill="#eaac9b"/>
  <path id="Path_181" data-name="Path 181" d="M734.707,752.323c2.388,2.944,8.431,11.354,5.946,16.837s-5.711,4.135-9.625-.023-12.2-24.085-12.552-25.124c-.19-.566.925.493,3.189-1.25a6.709,6.709,0,0,0,2.773-3.293C725.48,739.96,731.854,748.806,734.707,752.323Z" transform="translate(-643.403 -674.867)" fill="#32e0c4"/>
  <path id="Path_182" data-name="Path 182" d="M731.249,768.977c-.532-.465-1.085-1-1.692-1.648-3.974-4.217-12.28-24.29-12.574-25.166a.276.276,0,0,1,.011-.26c.073-.1.2-.091.39-.079a3.963,3.963,0,0,0,2.829-1.039l.008-.006a6.553,6.553,0,0,0,2.725-3.234l.043-.125.12.057a1.246,1.246,0,0,1,.269.192,91.086,91.086,0,0,1,6.232,7.765c1.456,1.916,2.832,3.727,3.806,4.929,2.051,2.532,8.555,11.239,5.962,16.961-.975,2.152-2.092,3.338-3.414,3.624S733.094,770.59,731.249,768.977ZM717.2,742.054l.01.033c.294.874,8.57,20.885,12.523,25.08.6.638,1.15,1.172,1.676,1.631,1.785,1.56,3.26,2.186,4.511,1.915s2.305-1.411,3.247-3.49c1.056-2.331.671-5.45-1.145-9.272a39.841,39.841,0,0,0-4.785-7.442c-.976-1.2-2.352-3.017-3.808-4.935a93.861,93.861,0,0,0-6.2-7.731c-.039-.035-.073-.062-.1-.084a6.949,6.949,0,0,1-2.754,3.2l-.007.006a4.185,4.185,0,0,1-2.984,1.088C717.31,742.054,717.239,742.051,717.2,742.054Z" transform="translate(-642.021 -672.979)" fill="#1ed1af"/>
  <path id="Path_183" data-name="Path 183" d="M907.6,484.256V468.163a.894.894,0,0,0-1.787,0v16.093a1.941,1.941,0,1,0,1.787,0Z" transform="translate(-815.012 -424.164)" fill="#d62b2b"/>
  <path id="Path_184" data-name="Path 184" d="M910.462,490.819a1.62,1.62,0,0,1-.746-3.059l.174-.09V471.384a.573.573,0,1,1,1.145,0V487.67l.173.09a1.62,1.62,0,0,1-.745,3.059Z" transform="translate(-818.769 -427.383)" fill="#ff2a59"/>
  <path id="Path_185" data-name="Path 185" d="M456.833,103l-.121,3.768,1.891-.345.419,6.188-.909-5.236-2.082.559-.661-4.834Z" transform="translate(-401.071 -88.608)" fill="#ff2a59"/>
  <path id="Path_186" data-name="Path 186" d="M719.771,175.358l-2.8,2.52L718.525,179l-4.175,4.587,3.149-4.281-1.845-1.115,3.031-3.825Z" transform="translate(-639.621 -154.347)" fill="#ff2a59"/>
  <path id="Path_187" data-name="Path 187" d="M215.024,247.32l2.678,2.652,1.034-1.62,4.82,3.9-4.456-2.9-1.007,1.906-3.994-2.8Z" transform="translate(-178.835 -221.542)" fill="#ff2a59"/>
  <path id="Path_188" data-name="Path 188" d="M138.78,481.64l3.769.066-.372-1.885,6.181-.511-5.222.986.589,2.074-4.824.733Z" transform="translate(-109.457 -435.231)" fill="#ff2a59"/>
  <path id="Path_189" data-name="Path 189" d="M199.49,645.984l3.34-1.747L201.6,642.76l5.181-3.41-4.112,3.367,1.512,1.538L200.3,647.21Z" transform="translate(-165.377 -582.645)" fill="#ff2a59"/>
</svg>
